STARTFONT 2.1
FONT -B&H-Lucida Sans-Bold-R-Normal-Sans-6-60-72-72-P-38-ISO8859-1
SIZE 6 72 72
FONTBOUNDINGBOX 13 6 -4 -1

STARTPROPERTIES 22
FONTNAME_REGISTRY "-"
FOUNDRY "B&H"
FAMILY_NAME "Lucida Sans"
WEIGHT_NAME "Bold"
SLANT "R"
SETWIDTH_NAME "Normal"
ADD_STYLE_NAME "Sans"
PIXEL_SIZE 6
POINT_SIZE 60
RESOLUTION_X 72
RESOLUTION_Y 72
SPACING "P"
CHARSET_REGISTRY "ISO8859"
CHARSET_ENCODING "1"
FULL_NAME "LucidaSans-Bold"
AVERAGE_WIDTH 38
WEIGHT 10
X_HEIGHT 3
QUAD_WIDTH 3
DEFAULT_CHAR 32
FONT_DESCENT 1
FONT_ASCENT 5
ENDPROPERTIES

CHARS 190

STARTCHAR space
ENCODING 32
SWIDTH 343 0
DWIDTH 2 0
BBX 1 1 0 0
BITMAP
00
ENDCHAR

STARTCHAR exclam
ENCODING 33
SWIDTH 265 0
DWIDTH 2 0
BBX 1 4 1 0
BITMAP
80
80
80
80
ENDCHAR

STARTCHAR quotedbl
ENCODING 34
SWIDTH 530 0
DWIDTH 3 0
BBX 3 2 0 2
BITMAP
A0
A0
ENDCHAR

STARTCHAR numbersign
ENCODING 35
SWIDTH 687 0
DWIDTH 4 0
BBX 4 4 0 0
BITMAP
70
F0
E0
E0
ENDCHAR

STARTCHAR dollar
ENCODING 36
SWIDTH 687 0
DWIDTH 4 0
BBX 3 6 1 -1
BITMAP
40
E0
C0
60
E0
40
ENDCHAR

STARTCHAR percent
ENCODING 37
SWIDTH 898 0
DWIDTH 5 0
BBX 6 4 0 0
BITMAP
C8
D0
3C
5C
ENDCHAR

STARTCHAR ampersand
ENCODING 38
SWIDTH 792 0
DWIDTH 5 0
BBX 4 4 0 0
BITMAP
60
70
F0
F0
ENDCHAR

STARTCHAR quoteright
ENCODING 39
SWIDTH 265 0
DWIDTH 2 0
BBX 1 2 0 2
BITMAP
80
80
ENDCHAR

STARTCHAR parenleft
ENCODING 40
SWIDTH 386 0
DWIDTH 2 0
BBX 2 5 0 -1
BITMAP
40
80
80
80
40
ENDCHAR

STARTCHAR parenright
ENCODING 41
SWIDTH 386 0
DWIDTH 2 0
BBX 2 5 0 -1
BITMAP
80
40
40
40
80
ENDCHAR

STARTCHAR asterisk
ENCODING 42
SWIDTH 464 0
DWIDTH 3 0
BBX 2 2 0 2
BITMAP
C0
C0
ENDCHAR

STARTCHAR plus
ENCODING 43
SWIDTH 687 0
DWIDTH 4 0
BBX 3 3 1 0
BITMAP
40
E0
40
ENDCHAR

STARTCHAR comma
ENCODING 44
SWIDTH 343 0
DWIDTH 2 0
BBX 1 3 1 -1
BITMAP
80
80
80
ENDCHAR

STARTCHAR minus
ENCODING 45
SWIDTH 687 0
DWIDTH 4 0
BBX 3 1 1 1
BITMAP
E0
ENDCHAR

STARTCHAR period
ENCODING 46
SWIDTH 343 0
DWIDTH 2 0
BBX 1 1 1 0
BITMAP
80
ENDCHAR

STARTCHAR slash
ENCODING 47
SWIDTH 596 0
DWIDTH 4 0
BBX 4 5 0 -1
BITMAP
30
20
40
40
80
ENDCHAR

STARTCHAR zero
ENCODING 48
SWIDTH 687 0
DWIDTH 4 0
BBX 3 4 1 0
BITMAP
E0
A0
A0
E0
ENDCHAR

STARTCHAR one
ENCODING 49
SWIDTH 687 0
DWIDTH 4 0
BBX 2 4 1 0
BITMAP
C0
40
40
40
ENDCHAR

STARTCHAR two
ENCODING 50
SWIDTH 687 0
DWIDTH 4 0
BBX 3 4 0 0
BITMAP
E0
20
C0
E0
ENDCHAR

STARTCHAR three
ENCODING 51
SWIDTH 687 0
DWIDTH 4 0
BBX 2 4 1 0
BITMAP
C0
C0
40
C0
ENDCHAR

STARTCHAR four
ENCODING 52
SWIDTH 687 0
DWIDTH 4 0
BBX 3 4 1 0
BITMAP
60
E0
E0
20
ENDCHAR

STARTCHAR five
ENCODING 53
SWIDTH 687 0
DWIDTH 4 0
BBX 3 4 1 0
BITMAP
E0
E0
20
E0
ENDCHAR

STARTCHAR six
ENCODING 54
SWIDTH 687 0
DWIDTH 4 0
BBX 3 4 1 0
BITMAP
60
E0
A0
E0
ENDCHAR

STARTCHAR seven
ENCODING 55
SWIDTH 687 0
DWIDTH 4 0
BBX 3 4 1 0
BITMAP
E0
60
C0
80
ENDCHAR

STARTCHAR eight
ENCODING 56
SWIDTH 687 0
DWIDTH 4 0
BBX 3 4 1 0
BITMAP
E0
A0
E0
E0
ENDCHAR

STARTCHAR nine
ENCODING 57
SWIDTH 687 0
DWIDTH 4 0
BBX 3 4 1 0
BITMAP
E0
A0
E0
C0
ENDCHAR

STARTCHAR colon
ENCODING 58
SWIDTH 343 0
DWIDTH 2 0
BBX 1 3 1 0
BITMAP
80
00
80
ENDCHAR

STARTCHAR semicolon
ENCODING 59
SWIDTH 343 0
DWIDTH 2 0
BBX 1 4 1 -1
BITMAP
80
80
80
80
ENDCHAR

STARTCHAR less
ENCODING 60
SWIDTH 687 0
DWIDTH 4 0
BBX 4 3 2 0
BITMAP
30
E0
30
ENDCHAR

STARTCHAR equal
ENCODING 61
SWIDTH 687 0
DWIDTH 4 0
BBX 3 2 1 1
BITMAP
E0
E0
ENDCHAR

STARTCHAR greater
ENCODING 62
SWIDTH 687 0
DWIDTH 4 0
BBX 4 3 1 0
BITMAP
C0
70
C0
ENDCHAR

STARTCHAR question
ENCODING 63
SWIDTH 572 0
DWIDTH 3 0
BBX 3 4 0 0
BITMAP
E0
20
40
40
ENDCHAR

STARTCHAR at
ENCODING 64
SWIDTH 833 0
DWIDTH 5 0
BBX 5 4 0 0
BITMAP
78
B8
F0
E0
ENDCHAR

STARTCHAR A
ENCODING 65
SWIDTH 773 0
DWIDTH 5 0
BBX 5 4 0 0
BITMAP
60
60
F0
98
ENDCHAR

STARTCHAR B
ENCODING 66
SWIDTH 669 0
DWIDTH 4 0
BBX 3 4 1 0
BITMAP
E0
E0
A0
E0
ENDCHAR

STARTCHAR C
ENCODING 67
SWIDTH 726 0
DWIDTH 4 0
BBX 4 4 0 0
BITMAP
70
80
80
70
ENDCHAR

STARTCHAR D
ENCODING 68
SWIDTH 819 0
DWIDTH 5 0
BBX 4 4 1 0
BITMAP
E0
90
90
E0
ENDCHAR

STARTCHAR E
ENCODING 69
SWIDTH 645 0
DWIDTH 4 0
BBX 2 4 1 0
BITMAP
C0
C0
80
C0
ENDCHAR

STARTCHAR F
ENCODING 70
SWIDTH 602 0
DWIDTH 4 0
BBX 3 4 1 0
BITMAP
E0
E0
80
80
ENDCHAR

STARTCHAR G
ENCODING 71
SWIDTH 759 0
DWIDTH 5 0
BBX 4 4 0 0
BITMAP
70
80
90
70
ENDCHAR

STARTCHAR H
ENCODING 72
SWIDTH 813 0
DWIDTH 5 0
BBX 4 4 0 0
BITMAP
90
90
F0
90
ENDCHAR

STARTCHAR I
ENCODING 73
SWIDTH 361 0
DWIDTH 2 0
BBX 1 4 1 0
BITMAP
80
80
80
80
ENDCHAR

STARTCHAR J
ENCODING 74
SWIDTH 501 0
DWIDTH 3 0
BBX 2 5 0 -1
BITMAP
40
40
40
40
C0
ENDCHAR

STARTCHAR K
ENCODING 75
SWIDTH 753 0
DWIDTH 5 0
BBX 3 4 1 0
BITMAP
A0
C0
C0
A0
ENDCHAR

STARTCHAR L
ENCODING 76
SWIDTH 620 0
DWIDTH 4 0
BBX 3 4 1 0
BITMAP
80
80
80
E0
ENDCHAR

STARTCHAR M
ENCODING 77
SWIDTH 940 0
DWIDTH 6 0
BBX 5 4 0 0
BITMAP
D8
D8
F8
A8
ENDCHAR

STARTCHAR N
ENCODING 78
SWIDTH 783 0
DWIDTH 5 0
BBX 4 4 0 0
BITMAP
D0
F0
B0
90
ENDCHAR

STARTCHAR O
ENCODING 79
SWIDTH 855 0
DWIDTH 5 0
BBX 4 4 1 0
BITMAP
60
90
90
60
ENDCHAR

STARTCHAR P
ENCODING 80
SWIDTH 657 0
DWIDTH 4 0
BBX 3 4 1 0
BITMAP
E0
E0
80
80
ENDCHAR

STARTCHAR Q
ENCODING 81
SWIDTH 855 0
DWIDTH 5 0
BBX 5 5 0 -1
BITMAP
60
90
90
60
18
ENDCHAR

STARTCHAR R
ENCODING 82
SWIDTH 734 0
DWIDTH 4 0
BBX 4 4 0 0
BITMAP
E0
E0
A0
B0
ENDCHAR

STARTCHAR S
ENCODING 83
SWIDTH 594 0
DWIDTH 4 0
BBX 3 4 0 0
BITMAP
E0
C0
20
E0
ENDCHAR

STARTCHAR T
ENCODING 84
SWIDTH 735 0
DWIDTH 4 0
BBX 5 4 0 0
BITMAP
F8
20
20
20
ENDCHAR

STARTCHAR U
ENCODING 85
SWIDTH 783 0
DWIDTH 5 0
BBX 4 4 0 0
BITMAP
90
90
90
F0
ENDCHAR

STARTCHAR V
ENCODING 86
SWIDTH 735 0
DWIDTH 4 0
BBX 4 4 0 0
BITMAP
90
50
60
60
ENDCHAR

STARTCHAR W
ENCODING 87
SWIDTH 940 0
DWIDTH 6 0
BBX 6 4 0 0
BITMAP
AC
B8
78
58
ENDCHAR

STARTCHAR X
ENCODING 88
SWIDTH 699 0
DWIDTH 4 0
BBX 4 4 0 0
BITMAP
F0
60
60
B0
ENDCHAR

STARTCHAR Y
ENCODING 89
SWIDTH 738 0
DWIDTH 4 0
BBX 3 4 1 0
BITMAP
A0
60
40
40
ENDCHAR

STARTCHAR Z
ENCODING 90
SWIDTH 675 0
DWIDTH 4 0
BBX 3 4 0 0
BITMAP
E0
60
C0
E0
ENDCHAR

STARTCHAR bracketleft
ENCODING 91
SWIDTH 386 0
DWIDTH 2 0
BBX 1 5 1 -1
BITMAP
80
80
80
80
80
ENDCHAR

STARTCHAR backslash
ENCODING 92
SWIDTH 596 0
DWIDTH 4 0
BBX 4 5 0 -1
BITMAP
80
40
40
20
30
ENDCHAR

STARTCHAR bracketright
ENCODING 93
SWIDTH 386 0
DWIDTH 2 0
BBX 1 5 1 -1
BITMAP
80
80
80
80
80
ENDCHAR

STARTCHAR asciicircum
ENCODING 94
SWIDTH 687 0
DWIDTH 4 0
BBX 3 4 1 1
BITMAP
40
40
E0
A0
ENDCHAR

STARTCHAR underscore
ENCODING 95
SWIDTH 500 0
DWIDTH 3 0
BBX 3 1 0 -1
BITMAP
E0
ENDCHAR

STARTCHAR quoteleft
ENCODING 96
SWIDTH 265 0
DWIDTH 2 0
BBX 1 3 0 1
BITMAP
80
80
80
ENDCHAR

STARTCHAR a
ENCODING 97
SWIDTH 623 0
DWIDTH 4 0
BBX 3 3 0 0
BITMAP
E0
E0
E0
ENDCHAR

STARTCHAR b
ENCODING 98
SWIDTH 696 0
DWIDTH 4 0
BBX 3 4 1 0
BITMAP
80
E0
A0
E0
ENDCHAR

STARTCHAR c
ENCODING 99
SWIDTH 545 0
DWIDTH 3 0
BBX 3 3 0 0
BITMAP
E0
80
E0
ENDCHAR

STARTCHAR d
ENCODING 100
SWIDTH 696 0
DWIDTH 4 0
BBX 3 4 0 0
BITMAP
20
E0
A0
E0
ENDCHAR

STARTCHAR e
ENCODING 101
SWIDTH 614 0
DWIDTH 4 0
BBX 3 3 0 0
BITMAP
E0
E0
E0
ENDCHAR

STARTCHAR f
ENCODING 102
SWIDTH 461 0
DWIDTH 3 0
BBX 2 4 0 0
BITMAP
C0
C0
80
80
ENDCHAR

STARTCHAR g
ENCODING 103
SWIDTH 696 0
DWIDTH 4 0
BBX 3 4 0 -1
BITMAP
E0
A0
E0
E0
ENDCHAR

STARTCHAR h
ENCODING 104
SWIDTH 693 0
DWIDTH 4 0
BBX 3 4 1 0
BITMAP
80
E0
A0
A0
ENDCHAR

STARTCHAR i
ENCODING 105
SWIDTH 361 0
DWIDTH 2 0
BBX 1 4 1 0
BITMAP
80
80
80
80
ENDCHAR

STARTCHAR j
ENCODING 106
SWIDTH 361 0
DWIDTH 2 0
BBX 2 5 0 -1
BITMAP
40
40
40
40
C0
ENDCHAR

STARTCHAR k
ENCODING 107
SWIDTH 681 0
DWIDTH 4 0
BBX 3 4 1 0
BITMAP
80
E0
C0
A0
ENDCHAR

STARTCHAR l
ENCODING 108
SWIDTH 361 0
DWIDTH 2 0
BBX 1 4 1 0
BITMAP
80
80
80
80
ENDCHAR

STARTCHAR m
ENCODING 109
SWIDTH 1006 0
DWIDTH 6 0
BBX 5 3 1 0
BITMAP
F8
A8
A8
ENDCHAR

STARTCHAR n
ENCODING 110
SWIDTH 693 0
DWIDTH 4 0
BBX 3 3 1 0
BITMAP
E0
A0
A0
ENDCHAR

STARTCHAR o
ENCODING 111
SWIDTH 675 0
DWIDTH 4 0
BBX 3 3 1 0
BITMAP
E0
A0
E0
ENDCHAR

STARTCHAR p
ENCODING 112
SWIDTH 696 0
DWIDTH 4 0
BBX 3 4 1 -1
BITMAP
E0
A0
E0
80
ENDCHAR

STARTCHAR q
ENCODING 113
SWIDTH 696 0
DWIDTH 4 0
BBX 3 4 0 -1
BITMAP
E0
A0
E0
20
ENDCHAR

STARTCHAR r
ENCODING 114
SWIDTH 500 0
DWIDTH 3 0
BBX 2 3 1 0
BITMAP
C0
80
80
ENDCHAR

STARTCHAR s
ENCODING 115
SWIDTH 622 0
DWIDTH 4 0
BBX 2 3 1 0
BITMAP
C0
80
C0
ENDCHAR

STARTCHAR t
ENCODING 116
SWIDTH 436 0
DWIDTH 3 0
BBX 2 4 0 0
BITMAP
80
C0
80
C0
ENDCHAR

STARTCHAR u
ENCODING 117
SWIDTH 693 0
DWIDTH 4 0
BBX 3 3 1 0
BITMAP
A0
A0
E0
ENDCHAR

STARTCHAR v
ENCODING 118
SWIDTH 663 0
DWIDTH 4 0
BBX 4 3 0 0
BITMAP
90
60
60
ENDCHAR

STARTCHAR w
ENCODING 119
SWIDTH 885 0
DWIDTH 5 0
BBX 5 3 0 0
BITMAP
A8
F8
50
ENDCHAR

STARTCHAR x
ENCODING 120
SWIDTH 568 0
DWIDTH 3 0
BBX 3 3 0 0
BITMAP
E0
40
A0
ENDCHAR

STARTCHAR y
ENCODING 121
SWIDTH 645 0
DWIDTH 4 0
BBX 4 4 0 -1
BITMAP
B0
60
60
C0
ENDCHAR

STARTCHAR z
ENCODING 122
SWIDTH 608 0
DWIDTH 4 0
BBX 4 3 0 0
BITMAP
F0
60
F0
ENDCHAR

STARTCHAR braceleft
ENCODING 123
SWIDTH 386 0
DWIDTH 2 0
BBX 1 5 1 -1
BITMAP
80
80
80
80
80
ENDCHAR

STARTCHAR bar
ENCODING 124
SWIDTH 265 0
DWIDTH 2 0
BBX 1 5 0 -1
BITMAP
80
80
80
80
80
ENDCHAR

STARTCHAR braceright
ENCODING 125
SWIDTH 386 0
DWIDTH 2 0
BBX 1 5 1 -1
BITMAP
80
80
80
80
80
ENDCHAR

STARTCHAR asciitilde
ENCODING 126
SWIDTH 687 0
DWIDTH 4 0
BBX 4 2 0 1
BITMAP
D0
B0
ENDCHAR

STARTCHAR exclamdown
ENCODING 161
SWIDTH 265 0
DWIDTH 2 0
BBX 1 4 1 -1
BITMAP
80
80
80
80
ENDCHAR

STARTCHAR cent
ENCODING 162
SWIDTH 687 0
DWIDTH 4 0
BBX 3 4 1 0
BITMAP
40
E0
E0
40
ENDCHAR

STARTCHAR sterling
ENCODING 163
SWIDTH 687 0
DWIDTH 4 0
BBX 3 4 1 0
BITMAP
60
60
40
E0
ENDCHAR

STARTCHAR currency
ENCODING 164
SWIDTH 687 0
DWIDTH 4 0
BBX 5 4 0 0
BITMAP
88
70
70
88
ENDCHAR

STARTCHAR yen
ENCODING 165
SWIDTH 687 0
DWIDTH 4 0
BBX 5 4 0 0
BITMAP
F8
70
70
20
ENDCHAR

STARTCHAR brokenbar
ENCODING 166
SWIDTH 265 0
DWIDTH 2 0
BBX 1 5 0 -1
BITMAP
80
80
00
80
80
ENDCHAR

STARTCHAR section
ENCODING 167
SWIDTH 693 0
DWIDTH 4 0
BBX 2 5 1 -1
BITMAP
C0
C0
C0
40
C0
ENDCHAR

STARTCHAR dieresis
ENCODING 168
SWIDTH 675 0
DWIDTH 4 0
BBX 2 1 1 3
BITMAP
C0
ENDCHAR

STARTCHAR copyright
ENCODING 169
SWIDTH 825 0
DWIDTH 5 0
BBX 5 4 0 0
BITMAP
70
F8
F8
70
ENDCHAR

STARTCHAR ordfeminine
ENCODING 170
SWIDTH 536 0
DWIDTH 3 0
BBX 3 2 0 2
BITMAP
E0
E0
ENDCHAR

STARTCHAR guillemotleft
ENCODING 171
SWIDTH 614 0
DWIDTH 4 0
BBX 4 3 0 0
BITMAP
50
E0
50
ENDCHAR

STARTCHAR logicalnot
ENCODING 172
SWIDTH 687 0
DWIDTH 4 0
BBX 4 2 0 1
BITMAP
F0
10
ENDCHAR

STARTCHAR hyphen
ENCODING 173
SWIDTH 289 0
DWIDTH 2 0
BBX 1 1 0 2
BITMAP
80
ENDCHAR

STARTCHAR registered
ENCODING 174
SWIDTH 687 0
DWIDTH 4 0
BBX 4 3 0 1
BITMAP
60
F0
60
ENDCHAR

STARTCHAR macron
ENCODING 175
SWIDTH 675 0
DWIDTH 4 0
BBX 2 1 1 3
BITMAP
C0
ENDCHAR

STARTCHAR degree
ENCODING 176
SWIDTH 241 0
DWIDTH 1 0
BBX 3 2 1 2
BITMAP
A0
40
ENDCHAR

STARTCHAR plusminus
ENCODING 177
SWIDTH 687 0
DWIDTH 4 0
BBX 3 4 1 0
BITMAP
40
E0
40
E0
ENDCHAR

STARTCHAR twosuperior
ENCODING 178
SWIDTH 536 0
DWIDTH 2 0
BBX 2 3 -3 1
BITMAP
C0
40
C0
ENDCHAR

STARTCHAR threesuperior
ENCODING 179
SWIDTH 536 0
DWIDTH 2 0
BBX 2 3 -3 1
BITMAP
C0
80
C0
ENDCHAR

STARTCHAR acute
ENCODING 180
SWIDTH 675 0
DWIDTH 4 0
BBX 2 1 1 3
BITMAP
C0
ENDCHAR

STARTCHAR mu
ENCODING 181
SWIDTH 699 0
DWIDTH 4 0
BBX 3 4 1 -1
BITMAP
A0
A0
E0
80
ENDCHAR

STARTCHAR paragraph
ENCODING 182
SWIDTH 693 0
DWIDTH 4 0
BBX 2 5 1 -1
BITMAP
C0
C0
C0
C0
C0
ENDCHAR

STARTCHAR periodcentered
ENCODING 183
SWIDTH 343 0
DWIDTH 4 0
BBX 1 1 2 1
BITMAP
80
ENDCHAR

STARTCHAR cedilla
ENCODING 184
SWIDTH 675 0
DWIDTH 4 0
BBX 1 1 2 -1
BITMAP
80
ENDCHAR

STARTCHAR onesuperior
ENCODING 185
SWIDTH 536 0
DWIDTH 2 0
BBX 1 3 -4 1
BITMAP
80
80
80
ENDCHAR

STARTCHAR ordmasculine
ENCODING 186
SWIDTH 536 0
DWIDTH 3 0
BBX 3 2 0 2
BITMAP
E0
E0
ENDCHAR

STARTCHAR guillemotright
ENCODING 187
SWIDTH 614 0
DWIDTH 4 0
BBX 4 3 0 0
BITMAP
A0
70
A0
ENDCHAR

STARTCHAR onequarter
ENCODING 188
SWIDTH 1066 0
DWIDTH 6 0
BBX 5 4 1 0
BITMAP
90
B8
D8
C8
ENDCHAR

STARTCHAR onehalf
ENCODING 189
SWIDTH 1066 0
DWIDTH 6 0
BBX 5 4 1 0
BITMAP
90
B8
C8
D8
ENDCHAR

STARTCHAR threequarters
ENCODING 190
SWIDTH 1120 0
DWIDTH 6 0
BBX 5 4 1 0
BITMAP
D0
B8
D8
C8
ENDCHAR

STARTCHAR questiondown
ENCODING 191
SWIDTH 572 0
DWIDTH 3 0
BBX 3 4 0 -1
BITMAP
40
40
80
E0
ENDCHAR

STARTCHAR Agrave
ENCODING 192
SWIDTH 773 0
DWIDTH 5 0
BBX 5 5 0 0
BITMAP
60
60
60
F0
98
ENDCHAR

STARTCHAR Aacute
ENCODING 193
SWIDTH 773 0
DWIDTH 5 0
BBX 5 5 0 0
BITMAP
30
60
60
F0
98
ENDCHAR

STARTCHAR Acircumflex
ENCODING 194
SWIDTH 773 0
DWIDTH 5 0
BBX 5 4 0 0
BITMAP
60
60
F0
98
ENDCHAR

STARTCHAR Atilde
ENCODING 195
SWIDTH 773 0
DWIDTH 5 0
BBX 5 5 0 0
BITMAP
70
60
60
F0
98
ENDCHAR

STARTCHAR Adieresis
ENCODING 196
SWIDTH 773 0
DWIDTH 5 0
BBX 5 5 0 0
BITMAP
60
60
60
F0
98
ENDCHAR

STARTCHAR Aring
ENCODING 197
SWIDTH 773 0
DWIDTH 5 0
BBX 5 5 0 0
BITMAP
50
60
60
F0
98
ENDCHAR

STARTCHAR AE
ENCODING 198
SWIDTH 997 0
DWIDTH 6 0
BBX 5 4 0 0
BITMAP
38
78
70
98
ENDCHAR

STARTCHAR Ccedilla
ENCODING 199
SWIDTH 726 0
DWIDTH 4 0
BBX 4 5 0 -1
BITMAP
70
80
80
70
20
ENDCHAR

STARTCHAR Egrave
ENCODING 200
SWIDTH 645 0
DWIDTH 4 0
BBX 2 5 1 0
BITMAP
C0
C0
C0
80
C0
ENDCHAR

STARTCHAR Eacute
ENCODING 201
SWIDTH 645 0
DWIDTH 4 0
BBX 2 5 1 0
BITMAP
C0
C0
C0
80
C0
ENDCHAR

STARTCHAR Ecircumflex
ENCODING 202
SWIDTH 645 0
DWIDTH 4 0
BBX 2 4 1 0
BITMAP
C0
C0
80
C0
ENDCHAR

STARTCHAR Edieresis
ENCODING 203
SWIDTH 645 0
DWIDTH 4 0
BBX 2 5 1 0
BITMAP
C0
C0
C0
80
C0
ENDCHAR

STARTCHAR Igrave
ENCODING 204
SWIDTH 361 0
DWIDTH 2 0
BBX 2 5 2 0
BITMAP
C0
40
40
40
40
ENDCHAR

STARTCHAR Iacute
ENCODING 205
SWIDTH 361 0
DWIDTH 2 0
BBX 2 5 1 0
BITMAP
C0
80
80
80
80
ENDCHAR

STARTCHAR Icircumflex
ENCODING 206
SWIDTH 361 0
DWIDTH 2 0
BBX 1 4 1 0
BITMAP
80
80
80
80
ENDCHAR

STARTCHAR Idieresis
ENCODING 207
SWIDTH 361 0
DWIDTH 2 0
BBX 2 5 1 0
BITMAP
C0
80
80
80
80
ENDCHAR

STARTCHAR Eth
ENCODING 208
SWIDTH 819 0
DWIDTH 5 0
BBX 5 4 0 0
BITMAP
70
E8
48
70
ENDCHAR

STARTCHAR Ntilde
ENCODING 209
SWIDTH 783 0
DWIDTH 5 0
BBX 4 5 0 0
BITMAP
70
D0
F0
B0
90
ENDCHAR

STARTCHAR Ograve
ENCODING 210
SWIDTH 855 0
DWIDTH 5 0
BBX 4 5 1 0
BITMAP
60
60
90
90
60
ENDCHAR

STARTCHAR Oacute
ENCODING 211
SWIDTH 855 0
DWIDTH 5 0
BBX 4 5 1 0
BITMAP
60
60
90
90
60
ENDCHAR

STARTCHAR Ocircumflex
ENCODING 212
SWIDTH 855 0
DWIDTH 5 0
BBX 4 4 1 0
BITMAP
60
90
90
60
ENDCHAR

STARTCHAR Otilde
ENCODING 213
SWIDTH 855 0
DWIDTH 5 0
BBX 4 5 1 0
BITMAP
70
60
90
90
60
ENDCHAR

STARTCHAR Odieresis
ENCODING 214
SWIDTH 855 0
DWIDTH 5 0
BBX 4 5 1 0
BITMAP
60
60
90
90
60
ENDCHAR

STARTCHAR multiply
ENCODING 215
SWIDTH 687 0
DWIDTH 4 0
BBX 4 3 0 0
BITMAP
B0
40
B0
ENDCHAR

STARTCHAR Oslash
ENCODING 216
SWIDTH 855 0
DWIDTH 5 0
BBX 5 4 1 0
BITMAP
78
B0
D0
E0
ENDCHAR

STARTCHAR Ugrave
ENCODING 217
SWIDTH 783 0
DWIDTH 5 0
BBX 4 5 0 0
BITMAP
60
90
90
90
F0
ENDCHAR

STARTCHAR Uacute
ENCODING 218
SWIDTH 783 0
DWIDTH 5 0
BBX 4 5 0 0
BITMAP
60
90
90
90
F0
ENDCHAR

STARTCHAR Ucircumflex
ENCODING 219
SWIDTH 783 0
DWIDTH 5 0
BBX 4 4 0 0
BITMAP
90
90
90
F0
ENDCHAR

STARTCHAR Udieresis
ENCODING 220
SWIDTH 783 0
DWIDTH 5 0
BBX 4 5 0 0
BITMAP
60
90
90
90
F0
ENDCHAR

STARTCHAR Yacute
ENCODING 221
SWIDTH 738 0
DWIDTH 4 0
BBX 3 5 1 0
BITMAP
60
A0
60
40
40
ENDCHAR

STARTCHAR Thorn
ENCODING 222
SWIDTH 657 0
DWIDTH 4 0
BBX 3 4 1 0
BITMAP
E0
A0
E0
80
ENDCHAR

STARTCHAR germandbls
ENCODING 223
SWIDTH 724 0
DWIDTH 4 0
BBX 4 4 0 0
BITMAP
E0
80
F0
F0
ENDCHAR

STARTCHAR agrave
ENCODING 224
SWIDTH 623 0
DWIDTH 4 0
BBX 3 4 0 0
BITMAP
40
E0
E0
E0
ENDCHAR

STARTCHAR aacute
ENCODING 225
SWIDTH 623 0
DWIDTH 4 0
BBX 3 4 0 0
BITMAP
40
E0
E0
E0
ENDCHAR

STARTCHAR acircumflex
ENCODING 226
SWIDTH 623 0
DWIDTH 4 0
BBX 3 3 0 0
BITMAP
E0
E0
E0
ENDCHAR

STARTCHAR atilde
ENCODING 227
SWIDTH 623 0
DWIDTH 4 0
BBX 3 4 0 0
BITMAP
E0
E0
E0
E0
ENDCHAR

STARTCHAR adieresis
ENCODING 228
SWIDTH 623 0
DWIDTH 4 0
BBX 3 4 0 0
BITMAP
60
E0
E0
E0
ENDCHAR

STARTCHAR aring
ENCODING 229
SWIDTH 623 0
DWIDTH 4 0
BBX 3 4 0 0
BITMAP
A0
E0
E0
E0
ENDCHAR

STARTCHAR ae
ENCODING 230
SWIDTH 913 0
DWIDTH 5 0
BBX 5 3 0 0
BITMAP
F8
F8
F8
ENDCHAR

STARTCHAR ccedilla
ENCODING 231
SWIDTH 545 0
DWIDTH 3 0
BBX 3 4 0 -1
BITMAP
E0
80
E0
20
ENDCHAR

STARTCHAR egrave
ENCODING 232
SWIDTH 614 0
DWIDTH 4 0
BBX 3 4 0 0
BITMAP
40
E0
E0
E0
ENDCHAR

STARTCHAR eacute
ENCODING 233
SWIDTH 614 0
DWIDTH 4 0
BBX 3 4 0 0
BITMAP
40
E0
E0
E0
ENDCHAR

STARTCHAR ecircumflex
ENCODING 234
SWIDTH 614 0
DWIDTH 4 0
BBX 3 3 0 0
BITMAP
E0
E0
E0
ENDCHAR

STARTCHAR edieresis
ENCODING 235
SWIDTH 614 0
DWIDTH 4 0
BBX 3 4 0 0
BITMAP
60
E0
E0
E0
ENDCHAR

STARTCHAR igrave
ENCODING 236
SWIDTH 361 0
DWIDTH 2 0
BBX 2 4 2 0
BITMAP
C0
40
40
40
ENDCHAR

STARTCHAR iacute
ENCODING 237
SWIDTH 361 0
DWIDTH 2 0
BBX 2 4 1 0
BITMAP
C0
80
80
80
ENDCHAR

STARTCHAR icircumflex
ENCODING 238
SWIDTH 361 0
DWIDTH 2 0
BBX 1 3 1 0
BITMAP
80
80
80
ENDCHAR

STARTCHAR idieresis
ENCODING 239
SWIDTH 361 0
DWIDTH 2 0
BBX 2 4 1 0
BITMAP
C0
80
80
80
ENDCHAR

STARTCHAR eth
ENCODING 240
SWIDTH 675 0
DWIDTH 4 0
BBX 3 5 1 0
BITMAP
20
E0
E0
A0
E0
ENDCHAR

STARTCHAR ntilde
ENCODING 241
SWIDTH 693 0
DWIDTH 4 0
BBX 3 4 1 0
BITMAP
E0
E0
A0
A0
ENDCHAR

STARTCHAR ograve
ENCODING 242
SWIDTH 675 0
DWIDTH 4 0
BBX 3 4 1 0
BITMAP
40
E0
A0
E0
ENDCHAR

STARTCHAR oacute
ENCODING 243
SWIDTH 675 0
DWIDTH 4 0
BBX 3 4 1 0
BITMAP
40
E0
A0
E0
ENDCHAR

STARTCHAR ocircumflex
ENCODING 244
SWIDTH 675 0
DWIDTH 4 0
BBX 3 3 1 0
BITMAP
E0
A0
E0
ENDCHAR

STARTCHAR otilde
ENCODING 245
SWIDTH 675 0
DWIDTH 4 0
BBX 3 4 1 0
BITMAP
E0
E0
A0
E0
ENDCHAR

STARTCHAR odieresis
ENCODING 246
SWIDTH 675 0
DWIDTH 4 0
BBX 3 4 1 0
BITMAP
60
E0
A0
E0
ENDCHAR

STARTCHAR divide
ENCODING 247
SWIDTH 687 0
DWIDTH 4 0
BBX 3 3 1 0
BITMAP
40
E0
40
ENDCHAR

STARTCHAR oslash
ENCODING 248
SWIDTH 675 0
DWIDTH 4 0
BBX 4 3 1 0
BITMAP
F0
E0
E0
ENDCHAR

STARTCHAR ugrave
ENCODING 249
SWIDTH 693 0
DWIDTH 4 0
BBX 3 4 1 0
BITMAP
C0
A0
A0
E0
ENDCHAR

STARTCHAR uacute
ENCODING 250
SWIDTH 693 0
DWIDTH 4 0
BBX 3 4 1 0
BITMAP
60
A0
A0
E0
ENDCHAR

STARTCHAR ucircumflex
ENCODING 251
SWIDTH 693 0
DWIDTH 4 0
BBX 3 3 1 0
BITMAP
A0
A0
E0
ENDCHAR

STARTCHAR udieresis
ENCODING 252
SWIDTH 693 0
DWIDTH 4 0
BBX 3 4 1 0
BITMAP
60
A0
A0
E0
ENDCHAR

STARTCHAR yacute
ENCODING 253
SWIDTH 645 0
DWIDTH 4 0
BBX 4 5 0 -1
BITMAP
60
B0
60
60
C0
ENDCHAR

STARTCHAR thorn
ENCODING 254
SWIDTH 696 0
DWIDTH 4 0
BBX 3 5 1 -1
BITMAP
80
E0
A0
E0
80
ENDCHAR

STARTCHAR ydieresis
ENCODING 255
SWIDTH 645 0
DWIDTH 4 0
BBX 4 5 0 -1
BITMAP
60
B0
60
60
C0
ENDCHAR
ENDFONT
